<svg version="1.1" xmlns="http://www.w3.org/2000/svg" xmlns:xlink="http://www.w3.org/1999/xlink" width="338.65766" height="324.307" viewBox="0,0,338.65766,324.307"><g transform="translate(-150.67117,-16.8465)"><g data-paper-data="{&quot;isPaintingLayer&quot;:true}" fill-rule="nonzero" stroke-linejoin="miter" stroke-miterlimit="10" stroke-dasharray="" stroke-dashoffset="0" style="mix-blend-mode: normal"><path d="M404.75526,104.28779c0,45.56349 -38.95123,82.5 -87,82.5c-48.04878,0 -87,-36.93651 -87,-82.5c0,-45.56349 38.95122,-82.5 87,-82.5c48.04877,0 87,36.93651 87,82.5z" fill="#ff6697" stroke="#ff6697" stroke-width="2" stroke-linecap="butt"/><path d="M325.67117,160.33884c0,45.56349 -38.95122,82.5 -87,82.5c-48.04878,0 -87,-36.93651 -87,-82.5c0,-45.56349 38.95122,-82.5 87,-82.5c48.04878,0 87,36.93651 87,82.5z" fill="#66ffbb" stroke="#66ffbb" stroke-width="2" stroke-linecap="butt"/><path d="M488.32883,166.84034c0,45.56349 -38.95123,82.5 -87,82.5c-48.04877,0 -87,-36.93651 -87,-82.5c0,-45.56349 38.95123,-82.5 87,-82.5c48.04877,0 87,36.93651 87,82.5z" fill="#e3ff66" stroke="#e3ff66" stroke-width="2" stroke-linecap="butt"/><path d="M486.73072,187.77812c0,50.17001 -86.44538,152.37538 -178.07661,152.37538c-88.99757,0 -149.4651,-104.40555 -153.56668,-152.57821c9.90763,-1.70246 331.6433,-1.69942 331.6433,0.20284z" fill="#c38c4e" stroke="#c38c4e" stroke-width="2" stroke-linecap="butt"/><path d="" fill="#c38c4e" stroke="#c38c4e" stroke-width="2" stroke-linecap="butt"/><path d="" fill="#c38c4e" stroke="#c38c4e" stroke-width="2" stroke-linecap="butt"/><path d="" fill="#c38c4e" stroke="#c38c4e" stroke-width="2" stroke-linecap="butt"/><path d="" fill="#c38c4e" stroke="#c38c4e" stroke-width="2" stroke-linecap="butt"/><path d="" fill="#c38c4e" stroke="#c38c4e" stroke-width="2" stroke-linecap="butt"/><path d="M240.42922,73.24689c0,0 -31.40401,-16.67279 -40.58272,-25.79645c-8.70355,-8.65135 -13.13987,-27.60394 -13.13987,-27.60394" fill="none" stroke="#7b5231" stroke-width="6" stroke-linecap="round"/><path d="M264.27051,76.53412c0,14.09736 -11.76429,25.52553 -26.27627,25.52553c-14.51199,0 -26.27627,-11.42817 -26.27627,-25.52553c0,-14.09736 11.76429,-25.52552 26.27628,-25.52552c14.51199,0 26.27628,11.42816 26.27628,25.52552z" fill="#c24e4e" stroke="#c24e4e" stroke-width="2" stroke-linecap="butt"/><path d="M238.99423,102.05965c-5.39404,0 -10.40845,-1.64661 -14.58023,-3.84205c-2.50952,-1.32066 -4.71412,-2.36132 -6.51302,-4.70952c-1.03564,-1.35188 -3.43681,-5.55672 -4.18429,-7.09585c-1.60263,-3.29996 -2.49872,-5.98738 -2.49872,-9.8781c0,-1.64178 1.52266,-9.24891 2.04295,-9.10706c0.92541,0.25229 2.18224,7.78775 4.33908,12.53169c1.99966,4.39823 5.80805,7.65546 8.97983,10.82138c2.75881,2.75373 7.51433,4.3726 11.97539,5.42002c5.71047,1.34077 10.93845,1.74513 10.87823,2.39477c-0.01407,0.1518 -0.84878,1.71496 -3.17011,2.51533c-2.48567,0.85703 -6.49264,0.9494 -7.26909,0.9494z" fill="#c2c2c2" stroke="#c2c2c2" stroke-width="2" stroke-linecap="butt"/></g></g></svg>