<svg version="1.1" xmlns="http://www.w3.org/2000/svg" xmlns:xlink="http://www.w3.org/1999/xlink" width="143.42232" height="74" viewBox="0,0,143.42232,74"><g transform="translate(-251.43928,-143)"><g data-paper-data="{&quot;isPaintingLayer&quot;:true}" fill-rule="nonzero" stroke-linecap="butt" stroke-linejoin="miter" stroke-miterlimit="10" stroke-dasharray="" stroke-dashoffset="0" style="mix-blend-mode: normal"><path d="M287.93928,217c-20.15839,0 -36.5,-16.56546 -36.5,-37c0,-20.43454 16.34161,-37 36.5,-37c12.7,0 23.88506,6.57506 30.42325,16.55031c2.07341,3.16339 8.91914,25.86218 1.0337,40.37195c-6.71745,12.36059 -27.85579,17.07774 -31.45695,17.07774z" fill="#ffffff" stroke="none" stroke-width="none"/><text transform="translate(281.97618,189.09002) scale(0.76423,0.76423)" font-size="40" xml:space="preserve" fill="#ffffff" fill-rule="nonzero" stroke="#ffffff" stroke-width="15" stroke-linecap="butt" stroke-linejoin="miter" stroke-miterlimit="10" stroke-dasharray="" stroke-dashoffset="0" font-family="Sans Serif" font-weight="normal" text-anchor="start" style="mix-blend-mode: normal"><tspan x="0" dy="0">SN-Edit</tspan></text><text transform="translate(282.17999,188.17295) scale(0.76423,0.76423)" font-size="40" xml:space="preserve" fill="#ff4b19" fill-rule="nonzero" stroke="none" stroke-width="1" stroke-linecap="butt" stroke-linejoin="miter" stroke-miterlimit="10" stroke-dasharray="" stroke-dashoffset="0" font-family="Sans Serif" font-weight="normal" text-anchor="start" style="mix-blend-mode: normal"><tspan x="0" dy="0">SN-Edit</tspan></text><path d="M293.93928,152.75c0,2.8995 -2.3505,5.25 -5.25,5.25c-2.8995,0 -5.25,-2.3505 -5.25,-5.25c0,-2.8995 2.3505,-5.25 5.25,-5.25c2.8995,0 5.25,2.3505 5.25,5.25z" fill="#ff0404" stroke="none" stroke-width="0"/><path d="M280.93928,160.75c0,2.8995 -2.3505,5.25 -5.25,5.25c-2.8995,0 -5.25,-2.3505 -5.25,-5.25c0,-2.8995 2.3505,-5.25 5.25,-5.25c2.8995,0 5.25,2.3505 5.25,5.25z" fill="#ff7e05" stroke="none" stroke-width="0"/><path d="M271.43928,175.75c0,2.8995 -2.3505,5.25 -5.25,5.25c-2.8995,0 -5.25,-2.3505 -5.25,-5.25c0,-2.8995 2.3505,-5.25 5.25,-5.25c2.8995,0 5.25,2.3505 5.25,5.25z" fill="#ffeb05" stroke="none" stroke-width="0"/><path d="M269.93928,191.25c0,2.8995 -2.3505,5.25 -5.25,5.25c-2.8995,0 -5.25,-2.3505 -5.25,-5.25c0,-2.8995 2.3505,-5.25 5.25,-5.25c2.8995,0 5.25,2.3505 5.25,5.25z" fill="#05ff31" stroke="none" stroke-width="0"/><path d="M279.43928,201.75c0,2.8995 -2.3505,5.25 -5.25,5.25c-2.8995,0 -5.25,-2.3505 -5.25,-5.25c0,-2.8995 2.3505,-5.25 5.25,-5.25c2.8995,0 5.25,2.3505 5.25,5.25z" fill="#0540ff" stroke="none" stroke-width="0"/><path d="M294.93928,207.75c0,2.8995 -2.3505,5.25 -5.25,5.25c-2.8995,0 -5.25,-2.3505 -5.25,-5.25c0,-2.8995 2.3505,-5.25 5.25,-5.25c2.8995,0 5.25,2.3505 5.25,5.25z" fill="#8005ff" stroke="none" stroke-width="0"/></g></g></svg>