<svg version="1.1" xmlns="http://www.w3.org/2000/svg" xmlns:xlink="http://www.w3.org/1999/xlink" width="25.41529" height="35.55365" viewBox="0,0,25.41529,35.55365"><g transform="translate(-231.68084,-154.12805)"><g data-paper-data="{&quot;isPaintingLayer&quot;:true}" fill-rule="nonzero" stroke-width="0.5" stroke-linecap="butt" stroke-linejoin="miter" stroke-miterlimit="10" stroke-dasharray="" stroke-dashoffset="0" style="mix-blend-mode: normal"><path d="M238.98324,159.50877c0,-2.83363 2.29712,-5.13072 5.13072,-5.13072c2.83363,0 5.13072,2.29712 5.13072,5.13072c0,2.83363 -2.29712,5.13072 -5.13072,5.13072c-2.83363,0 -5.13072,-2.29712 -5.13072,-5.13072z" fill="none" stroke="#e0e0e0"/><path d="M233.32241,186.71488c0,0 1.16025,-23.74031 1.30315,-26.66463c0.02814,-0.57578 0.63225,-1.10513 1.52405,-1.2032c1.95787,-0.21535 5.41011,-0.55942 7.48158,-0.55942c2.34578,0 6.4409,0.36623 8.62682,0.57949c0.89793,0.0876 1.49448,0.61003 1.52058,1.18858c0.13218,2.9304 1.20268,26.65918 1.20268,26.65918z" fill="#c99831" stroke="#9e7829"/><path d="M231.93085,189.4317v-4.2409h24.91529v4.2409z" fill="#2c2c2c" stroke="#222222"/><path d="M233.45493,182.6065l0.26505,-4.02278l20.93943,-0.08559l0.39759,4.10837z" fill="#e0e0e0" stroke="#b1b0b0"/><path d="M233.14208,174.47452l0.26507,-4.02278l20.93943,-0.08561l0.39757,4.10838z" fill="#e0e0e0" stroke="#b1b0b0"/><path d="M234.02197,166.47504l0.13252,-4.1553l20.14426,0.04693v3.97584z" fill="#e0e0e0" stroke="#b1b0b0"/></g></g></svg>